<?xml version="1.0" encoding="utf-8"?>
<!-- Generator: Adobe Illustrator 18.0.0, SVG Export Plug-In . SVG Version: 6.00 Build 0)  -->
<!DOCTYPE svg PUBLIC "-//W3C//DTD SVG 1.1//EN" "http://www.w3.org/Graphics/SVG/1.1/DTD/svg11.dtd">
<svg version="1.1" id="Capa_1" xmlns="http://www.w3.org/2000/svg" xmlns:xlink="http://www.w3.org/1999/xlink" x="0px" y="0px"
	 viewBox="0 0 1024 1024" enable-background="new 0 0 1024 1024" xml:space="preserve">
<path fill="#F5F5F5" d="M512,0C229.2,0,0,229.2,0,512c0,282.8,229.2,512,512,512s512-229.2,512-512C1024,229.2,794.8,0,512,0z
	 M992.2,617.3L609.4,234.5L595,248.9l391.5,391.5c-21.8,80.7-63.6,153.2-119.8,211.8L171.7,157.3C260.1,72.6,379.9,20.5,512,20.5
	c271.5,0,491.5,220.1,491.5,491.5C1003.5,548.1,999.6,583.3,992.2,617.3z M31.8,406.7l383,383l14.4-14.4L37.5,383.6
	c21.8-80.7,63.6-153.2,119.8-211.8l694.9,694.9c-88.3,84.7-208.2,136.8-340.3,136.8c-271.5,0-491.5-220.1-491.5-491.5
	C20.5,475.9,24.4,440.7,31.8,406.7z"/>
</svg>
